<?xml version="1.0" standalone="no"?>
<!DOCTYPE svg PUBLIC "-//W3C//DTD SVG 20010904//EN"
 "http://www.w3.org/TR/2001/REC-SVG-20010904/DTD/svg10.dtd">
<svg version="1.0" xmlns="http://www.w3.org/2000/svg"
 width="388.000000pt" height="376.000000pt" viewBox="0 0 388.000000 376.000000"
 preserveAspectRatio="xMidYMid meet">

<g transform="translate(0.000000,376.000000) scale(0.100000,-0.100000)"
fill="#000000" stroke="none">
<path d="M1675 3600 c-492 -52 -980 -356 -1251 -777 -331 -515 -369 -1158
-100 -1708 190 -387 528 -694 939 -851 203 -78 378 -108 622 -107 230 0 368
23 565 95 83 30 270 115 280 128 3 4 12 10 20 13 40 19 75 46 72 57 -1 6 2 9
8 5 10 -6 114 66 137 95 9 12 8 18 -2 30 -11 12 -11 18 -1 33 16 21 23 22 23
2 0 -8 -4 -12 -9 -9 -4 3 -8 -1 -8 -9 0 -9 9 -14 24 -13 13 0 22 3 20 5 -2 2
2 11 8 19 10 11 9 17 -5 27 -24 17 -21 26 6 22 12 -2 16 -2 10 0 -23 8 -13 23
12 19 13 -3 24 -2 24 2 -3 19 2 26 10 14 7 -11 9 -11 14 1 3 9 -2 21 -11 29
-13 11 -14 11 -8 0 6 -9 3 -12 -10 -10 -14 2 -18 -2 -16 -16 2 -11 -1 -15 -7
-11 -6 3 -42 -22 -81 -57 l-69 -63 22 -25 22 -25 -26 23 -26 23 -79 -54 c-163
-112 -351 -192 -570 -243 -158 -37 -446 -46 -607 -19 -386 63 -711 240 -972
527 -198 218 -332 481 -397 782 -19 87 -22 132 -22 326 -1 248 11 332 75 520
197 590 709 1021 1324 1115 115 18 344 20 458 5 105 -13 244 -46 347 -82 96
-34 277 -124 354 -176 28 -19 56 -35 63 -35 7 0 10 -4 7 -8 -5 -9 36 -35 48
-31 5 1 7 -2 5 -6 -3 -11 133 -125 140 -118 4 3 0 6 -7 6 -9 0 -8 6 5 20 14
15 21 17 32 9 9 -9 13 -9 13 0 0 11 -7 13 -47 14 -13 0 -23 6 -23 14 0 8 5 11
10 8 6 -3 10 -3 10 0 0 11 -74 76 -98 85 -12 5 -22 13 -21 17 3 20 -3 23 -23
12 -19 -9 -21 -9 -11 1 10 11 -4 24 -65 67 -42 29 -82 53 -88 53 -7 0 -14 4
-16 9 -6 16 -140 82 -238 118 -265 97 -543 132 -815 103z m1245 -374 c0 -2 -7
-7 -16 -10 -8 -3 -12 -2 -9 4 6 10 25 14 25 6z m15 -16 c-3 -5 -12 -10 -18
-10 -7 0 -6 4 3 10 19 12 23 12 15 0z m75 -46 c14 -16 18 -23 9 -16 -8 6 -25
10 -37 7 -29 -5 -42 14 -33 50 2 10 36 -13 61 -41z m10 -51 c0 -13 -3 -13 -15
-3 -8 7 -12 16 -9 21 8 13 24 1 24 -18z m22 -25 c-7 -7 -12 -8 -12 -2 0 6 3
14 7 17 3 4 9 5 12 2 2 -3 -1 -11 -7 -17z m-22 -2469 c0 -14 -17 -10 -23 5 -4
10 -1 13 9 9 7 -3 14 -9 14 -14z m-63 -62 c-2 -6 -10 -12 -18 -15 -11 -3 -11
-2 1 7 13 10 13 12 0 20 -8 5 -18 7 -24 4 -5 -3 -6 -1 -2 5 9 15 49 -4 43 -21z
m-53 -36 c3 -5 -1 -14 -8 -20 -10 -9 -16 -9 -21 -1 -4 6 -1 9 7 8 7 -2 12 3
11 10 -3 14 3 16 11 3z"/>
<path d="M2954 3186 c1 -8 5 -18 8 -22 4 -3 5 1 4 10 -1 8 -5 18 -8 22 -4 3
-5 -1 -4 -10z"/>
<path d="M3070 3080 c0 -5 5 -10 11 -10 5 0 7 5 4 10 -3 6 -8 10 -11 10 -2 0
-4 -4 -4 -10z"/>
<path d="M3123 2997 c0 -8 6 -14 14 -14 9 0 10 4 2 14 -6 7 -12 13 -14 13 -1
0 -2 -6 -2 -13z"/>
<path d="M3142 2954 c10 -10 20 -16 22 -13 3 3 -5 11 -17 18 -21 13 -21 12 -5
-5z"/>
<path d="M1830 2731 c-5 -11 -10 -63 -10 -116 0 -95 0 -96 -32 -124 -41 -36
-99 -116 -91 -125 3 -3 1 -6 -5 -6 -5 0 -19 -3 -29 -6 -16 -6 -16 -5 2 9 19
16 19 16 -10 7 -123 -37 -131 -41 -148 -69 -55 -94 27 -169 203 -185 76 -7 91
-21 116 -103 8 -29 20 -53 25 -53 20 0 209 83 209 92 0 6 -6 8 -12 5 -149 -63
-189 -75 -195 -59 -3 9 -16 41 -29 70 l-23 52 34 0 c18 0 41 7 49 16 20 19 20
20 -3 20 -11 0 -17 -5 -14 -11 3 -6 1 -5 -6 1 -15 13 -24 77 -11 69 6 -4 10 1
10 10 0 9 -4 14 -8 11 -4 -2 -8 3 -8 13 0 14 7 17 28 15 15 -2 28 1 28 6 0 6
-6 10 -12 10 -37 0 -94 25 -129 57 l-39 35 18 30 c24 43 107 115 148 130 19 6
34 16 34 20 0 12 -22 9 -52 -6 l-28 -15 0 79 c0 43 4 81 9 84 5 3 19 -19 31
-49 24 -58 40 -69 21 -14 -17 48 -7 45 20 -5 34 -65 35 -49 1 25 -42 93 -71
118 -92 80z m-251 -435 c29 -30 25 -70 -6 -74 -13 -2 -23 1 -23 7 0 6 -4 11
-8 11 -5 0 -9 -7 -9 -15 0 -8 4 -12 9 -9 4 3 8 0 8 -5 0 -14 -13 -14 -28 1
-17 17 -15 59 4 86 19 28 25 28 53 -2z m169 -163 c-16 -2 -40 -2 -55 0 -16 2
-3 4 27 4 30 0 43 -2 28 -4z"/>
<path d="M1541 2307 c2 -1 13 -9 24 -17 19 -14 19 -14 6 3 -7 9 -18 17 -24 17
-6 0 -8 -1 -6 -3z"/>
<path d="M1995 2740 c-4 -6 -9 -46 -12 -88 -2 -42 -9 -79 -15 -83 -7 -4 -7 -8
0 -13 6 -4 8 -21 5 -41 -6 -37 4 -105 15 -105 4 0 8 48 8 105 2 111 11 182 22
170 3 -3 18 -54 33 -113 15 -59 28 -97 28 -85 1 22 -23 153 -34 188 -4 14 -2
13 9 -5 9 -14 23 -50 32 -80 10 -30 19 -49 21 -43 5 15 -24 106 -46 147 -21
37 -56 62 -66 46z"/>
<path d="M1930 2560 c0 -5 5 -10 10 -10 6 0 10 5 10 10 0 6 -4 10 -10 10 -5 0
-10 -4 -10 -10z"/>
<path d="M2110 2523 c1 -10 26 -43 33 -43 3 0 0 11 -6 25 -11 23 -27 34 -27
18z"/>
<path d="M1797 2414 c-3 -3 -3 -12 0 -20 3 -8 0 -20 -6 -28 -6 -7 -8 -16 -4
-19 11 -12 58 -8 77 6 16 12 16 14 -4 40 -20 25 -49 35 -63 21z m57 -45 c-8
-14 -24 -10 -24 6 0 9 6 12 15 9 8 -4 12 -10 9 -15z"/>
<path d="M1950 2174 c0 -9 5 -14 12 -12 18 6 21 28 4 28 -9 0 -16 -7 -16 -16z"/>
<path d="M2098 2077 c-24 -9 -39 -27 -23 -27 10 0 65 30 65 35 0 7 -10 5 -42
-8z"/>
<path d="M2046 1649 c-21 -17 -26 -29 -26 -65 0 -39 6 -50 50 -100 71 -77 85
-122 43 -138 -20 -8 -53 21 -53 46 0 11 -7 18 -20 18 -40 0 -16 -81 31 -100
33 -14 62 -6 89 23 38 40 19 95 -66 190 -37 41 -44 80 -17 96 25 13 53 -5 53
-34 0 -20 5 -25 24 -25 22 0 23 2 15 38 -15 67 -72 91 -123 51z"/>
<path d="M2249 1641 c-16 -16 -29 -38 -29 -48 0 -25 27 -72 78 -133 43 -53 53
-89 28 -109 -20 -17 -46 -2 -53 30 -8 40 -43 41 -43 1 0 -30 35 -76 51 -67 5
4 9 1 9 -5 0 -8 9 -10 27 -5 87 22 88 102 3 190 -41 42 -59 79 -53 107 10 41
73 26 73 -17 0 -18 5 -25 20 -25 38 0 17 79 -27 99 -37 17 -52 14 -84 -18z"/>
<path d="M760 1485 l0 -176 61 3 c53 3 65 7 82 29 29 39 33 106 9 152 -14 25
-18 49 -15 75 4 28 0 44 -17 65 -18 23 -29 27 -71 27 l-49 0 0 -175z m84 112
c8 -12 8 -22 0 -34 -21 -33 -34 -26 -34 17 0 43 13 50 34 17z m26 -116 c11
-22 13 -80 4 -105 -4 -10 -18 -16 -35 -16 l-29 0 0 70 c0 68 1 70 25 70 14 0
29 -8 35 -19z"/>
<path d="M1005 1638 c-3 -13 -21 -90 -40 -171 -19 -81 -35 -150 -35 -152 0 -3
11 -5 24 -5 20 0 25 7 36 60 12 58 14 60 44 60 31 0 32 -2 44 -60 12 -54 15
-60 38 -60 20 0 24 4 20 18 -7 24 -76 318 -76 326 0 3 -11 6 -25 6 -17 0 -26
-7 -30 -22z m44 -145 c1 -7 -6 -13 -14 -13 -16 0 -19 17 -8 46 6 16 7 16 14
-2 4 -10 8 -25 8 -31z"/>
<path d="M1170 1485 c0 -168 1 -175 20 -175 18 0 20 7 20 80 l0 80 30 0 c38 0
50 -23 50 -99 0 -54 2 -61 20 -61 18 0 20 7 20 78 0 43 -5 83 -11 89 -8 8 -8
17 0 31 20 38 13 100 -14 127 -20 21 -34 25 -80 25 l-55 0 0 -175z m112 112
c21 -34 -3 -77 -42 -77 -29 0 -30 2 -30 43 0 24 3 47 7 51 10 10 56 -3 65 -17z"/>
<path d="M1380 1485 l0 -175 25 0 c24 0 25 2 25 65 0 36 4 65 9 65 5 0 23 -29
40 -65 25 -54 34 -65 55 -65 l25 0 -45 96 -45 96 32 56 c18 32 39 67 47 80 14
21 13 22 -14 22 -25 0 -34 -9 -66 -68 l-37 -67 -1 68 c0 65 -1 67 -25 67 l-25
0 0 -175z"/>
<path d="M1590 1485 l0 -175 25 0 c25 0 25 2 26 83 l2 82 15 -82 c13 -74 17
-83 37 -83 20 0 24 8 37 88 15 82 16 84 18 37 5 -125 4 -120 28 -123 l22 -3 0
175 0 176 -34 0 c-33 0 -35 -2 -41 -42 -30 -198 -32 -199 -54 -45 l-13 87 -34
0 -34 0 0 -175z"/>
<path d="M1850 1485 l0 -175 61 0 c57 0 60 1 57 22 -2 18 -10 22 -38 23 l-35
0 -3 58 c-3 55 -2 57 23 57 33 0 36 37 3 42 -20 3 -23 10 -26 56 l-3 52 40 0
c34 0 41 3 41 20 0 18 -7 20 -60 20 l-60 0 0 -175z"/>
<path d="M2494 1636 c-3 -14 -3 -30 2 -37 4 -7 3 -10 -3 -6 -7 5 -73 -243 -73
-275 0 -5 9 -8 19 -8 16 0 22 12 33 63 12 57 15 62 42 65 31 4 48 -14 52 -53
1 -11 7 -33 14 -50 8 -21 13 -26 19 -16 7 11 10 11 14 0 4 -11 6 -11 6 -1 1 7
-6 15 -14 18 -11 5 -13 10 -5 19 9 11 5 36 -17 95 -4 8 -5 22 -4 32 1 9 -3 19
-8 22 -6 4 -7 14 -4 23 5 12 3 14 -7 8 -9 -5 -11 -4 -6 4 4 6 2 36 -4 66 -9
43 -15 55 -31 55 -11 0 -21 -9 -25 -24z m50 -119 c4 4 4 -1 0 -11 -5 -12 -4
-17 3 -13 5 3 10 1 10 -6 0 -7 -13 -12 -29 -12 -27 0 -29 2 -24 29 3 16 6 36
7 45 0 9 6 5 13 -12 7 -15 16 -24 20 -20z m46 -142 c7 -9 8 -15 2 -15 -5 0
-12 7 -16 15 -3 8 -4 15 -2 15 2 0 9 -7 16 -15z"/>
<path d="M2695 1639 c-4 -6 -5 -12 -2 -15 2 -3 7 2 10 11 7 17 1 20 -8 4z"/>
<path d="M2666 1585 c-9 -26 -7 -32 5 -12 6 10 9 21 6 23 -2 3 -7 -2 -11 -11z"/>
<path d="M2663 1534 c-7 -7 -13 -19 -13 -26 0 -7 7 -2 16 10 18 26 16 37 -3
16z"/>
<path d="M2665 1390 c3 -5 8 -10 11 -10 2 0 4 5 4 10 0 6 -5 10 -11 10 -5 0
-7 -4 -4 -10z"/>
<path d="M2690 1381 c0 -6 4 -13 10 -16 6 -3 7 1 4 9 -7 18 -14 21 -14 7z"/>
<path d="M1220 1135 c0 -30 5 -55 10 -55 6 0 10 7 10 15 0 21 28 19 33 -2 3
-10 4 9 4 42 0 38 -2 46 -4 23 -6 -51 -33 -53 -33 -3 0 19 -4 35 -10 35 -5 0
-10 -25 -10 -55z"/>
<path d="M1118 1174 c-11 -11 -9 -76 2 -94 9 -13 12 -13 23 1 9 12 16 14 29 5
23 -14 27 -8 35 49 4 35 3 46 -5 41 -7 -4 -12 -16 -12 -27 0 -15 -5 -19 -19
-14 -12 4 -21 0 -27 -12 -6 -14 -9 -9 -13 20 -3 22 -9 35 -13 31z"/>
<path d="M1300 1130 c0 -27 4 -50 8 -50 4 0 8 22 7 50 0 27 -3 50 -7 50 -5 0
-8 -22 -8 -50z"/>
<path d="M1349 1163 c-9 -11 -10 -14 -2 -10 14 9 29 -34 20 -58 -4 -8 -2 -17
3 -20 6 -4 10 4 11 17 l0 23 16 -22 c8 -13 23 -23 32 -23 10 0 12 3 5 8 -21
14 -34 48 -22 60 17 17 1 42 -25 42 -14 0 -31 -8 -38 -17z m48 -15 c-3 -8 -6
-5 -6 6 -1 11 2 17 5 13 3 -3 4 -12 1 -19z"/>
<path d="M1539 1129 c2 -29 6 -47 10 -41 8 13 2 92 -8 92 -3 0 -4 -23 -2 -51z"/>
<path d="M1591 1155 c-1 -64 18 -94 37 -57 16 29 25 85 14 78 -6 -3 -14 -21
-18 -39 l-8 -32 -12 40 c-12 38 -12 38 -13 10z"/>
<path d="M1670 1130 c0 -29 3 -50 7 -46 7 7 5 87 -3 95 -2 2 -4 -20 -4 -49z"/>
<path d="M1729 1123 c3 -32 7 -48 9 -35 2 16 8 22 18 18 37 -15 49 -17 29 -5
-27 16 -35 29 -35 57 0 12 -6 22 -12 22 -10 0 -12 -16 -9 -57z"/>
<path d="M1763 1154 c-1 -24 1 -25 14 -11 9 8 12 20 9 26 -12 19 -21 12 -23
-15z"/>
<path d="M1982 1155 c-16 -35 -15 -55 3 -55 8 0 15 -6 16 -12 0 -7 5 0 10 17
9 30 3 75 -10 75 -4 0 -13 -11 -19 -25z m14 -43 c-12 -11 -18 7 -10 30 l8 23
4 -23 c2 -13 1 -26 -2 -30z"/>
<path d="M2041 1173 c-9 -46 -3 -87 12 -89 9 -1 14 3 11 10 -3 7 2 19 11 26 8
7 15 20 14 29 0 13 -1 14 -6 1 -3 -8 -11 -21 -17 -29 -9 -11 -12 -6 -17 25 -3
21 -7 33 -8 27z"/>
<path d="M2145 1158 c-13 -20 -17 -21 -25 -8 -7 11 -9 2 -8 -30 0 -25 3 -35 5
-22 3 16 10 22 19 18 9 -3 12 -1 9 5 -4 5 1 21 9 34 21 31 13 33 -9 3z"/>
<path d="M2245 1169 c-4 -6 -4 -13 -1 -16 3 -4 6 -1 6 6 0 8 8 11 20 8 11 -3
18 -1 14 4 -7 12 -31 11 -39 -2z"/>
<path d="M1432 1131 c-2 -28 2 -40 13 -45 10 -4 14 -2 9 5 -4 6 0 15 7 20 10
6 11 9 2 9 -7 0 -13 11 -13 25 0 40 -15 29 -18 -14z"/>
<path d="M1801 1158 c-1 -10 6 -18 15 -18 24 0 13 -43 -16 -57 -14 -7 -19 -13
-12 -13 34 0 52 21 52 62 0 34 -2 38 -14 29 -11 -9 -15 -9 -19 1 -4 8 -6 7 -6
-4z"/>
<path d="M2305 1160 c-4 -6 -4 -14 -1 -17 3 -4 6 -1 6 5 0 7 5 12 11 12 7 0 9
-11 6 -26 -3 -16 -1 -22 5 -16 12 12 7 44 -9 49 -6 2 -14 -1 -18 -7z"/>
<path d="M2401 1154 c0 -11 3 -14 6 -6 3 7 2 16 -1 19 -3 4 -6 -2 -5 -13z"/>
<path d="M1903 1120 c-1 -25 1 -37 4 -27 5 20 30 17 25 -2 -1 -7 3 -9 9 -6 7
5 7 11 1 17 -7 7 -6 19 4 37 15 25 15 26 -1 4 -10 -13 -21 -23 -26 -23 -4 0
-10 10 -12 23 -2 12 -4 2 -4 -23z"/>
<path d="M2227 1126 c-3 -8 1 -22 9 -33 13 -17 14 -16 8 12 -8 37 -10 39 -17
21z"/>
<path d="M2361 1124 c0 -11 3 -14 6 -6 3 7 2 16 -1 19 -3 4 -6 -2 -5 -13z"/>
<path d="M2403 1115 c0 -8 4 -12 9 -9 5 3 6 10 3 15 -9 13 -12 11 -12 -6z"/>
<path d="M2269 1093 c-13 -16 -12 -17 4 -4 16 13 21 21 13 21 -2 0 -10 -8 -17
-17z"/>
<path d="M2435 1100 c3 -5 8 -10 11 -10 2 0 4 5 4 10 0 6 -5 10 -11 10 -5 0
-7 -4 -4 -10z"/>
<path d="M2365 1090 c3 -5 8 -10 11 -10 2 0 4 5 4 10 0 6 -5 10 -11 10 -5 0
-7 -4 -4 -10z"/>
<path d="M3155 820 c-3 -5 -1 -10 4 -10 6 0 11 5 11 10 0 6 -2 10 -4 10 -3 0
-8 -4 -11 -10z"/>
<path d="M3110 770 c-9 -6 -10 -10 -3 -10 6 0 15 5 18 10 8 12 4 12 -15 0z"/>
<path d="M3069 653 c-13 -17 -13 -17 6 -3 11 8 22 16 24 17 2 2 0 3 -6 3 -6 0
-17 -8 -24 -17z"/>
</g>
</svg>
